<?xml version="1.0" encoding="UTF-8"?>
<svg version="1.1" xmlns="http://www.w3.org/2000/svg" width="32" height="32">
<path d="M0 0 C10.56 0 21.12 0 32 0 C32 10.56 32 21.12 32 32 C21.44 32 10.88 32 0 32 C0 21.44 0 10.88 0 0 Z " fill="#0A9797" transform="translate(0,0)"/>
<path d="M0 0 C5.29012124 4.40843437 10.18808428 9.07559794 15 14 C19.32013216 12.34726179 22.05173696 9.13558835 25.1875 5.875 C27.10634803 3.89498444 29.03963125 1.93960842 31 0 C31.33 0 31.66 0 32 0 C32 5.94 32 11.88 32 18 C21.44 18 10.88 18 0 18 C0 12.06 0 6.12 0 0 Z " fill="#F6FBFB" transform="translate(0,14)"/>
<path d="M0 0 C10.56 0 21.12 0 32 0 C32 3.96 32 7.92 32 12 C29.87961365 9.38485683 27.86908256 6.80362384 26 4 C22.77879715 3.24078727 19.48754596 3.35203543 16.1875 3.3125 C14.83301758 3.23225586 14.83301758 3.23225586 13.45117188 3.15039062 C10.73516486 3.11247429 8.5950212 3.18339281 6 4 C3.72441626 6.42577874 2.43453316 9.02879727 1 12 C0.67 12 0.34 12 0 12 C0 8.04 0 4.08 0 0 Z " fill="#F5FAFA" transform="translate(0,0)"/>
<path d="M0 0 C4.62 0 9.24 0 14 0 C14 0.99 14 1.98 14 3 C12.35 3 10.7 3 9 3 C9 3.66 9 4.32 9 5 C10.98 5 12.96 5 15 5 C14.67 6.65 14.34 8.3 14 10 C12.35 10 10.7 10 9 10 C9 11.65 9 13.3 9 15 C7.68 15 6.36 15 5 15 C5 13.35 5 11.7 5 10 C3.35 10 1.7 10 0 10 C-0.33 8.35 -0.66 6.7 -1 5 C0.98 5 2.96 5 5 5 C5 4.34 5 3.68 5 3 C3.35 3 1.7 3 0 3 C0 2.01 0 1.02 0 0 Z " fill="#BBE2E2" transform="translate(9,7)"/>
<path d="M0 0 C4.62 0 9.24 0 14 0 C14 0.99 14 1.98 14 3 C12.35 3 10.7 3 9 3 C9 3.66 9 4.32 9 5 C10.65 5 12.3 5 14 5 C14 5.33 14 5.66 14 6 C12.35 6 10.7 6 9 6 C9 6.66 9 7.32 9 8 C7.68 8 6.36 8 5 8 C5 7.34 5 6.68 5 6 C3.68 5.67 2.36 5.34 1 5 C2.32 5 3.64 5 5 5 C5 4.34 5 3.68 5 3 C3.35 3 1.7 3 0 3 C0 2.01 0 1.02 0 0 Z " fill="#D5EDED" transform="translate(9,7)"/>
<path d="M0 0 C1.32 0 2.64 0 4 0 C4 0.66 4 1.32 4 2 C5.32 2 6.64 2 8 2 C8 1.34 8 0.68 8 0 C9.65 0.33 11.3 0.66 13 1 C10.00261059 2.99825961 9.36652492 3.27550398 6 3.25 C5.319375 3.25515625 4.63875 3.2603125 3.9375 3.265625 C2 3 2 3 -1 1 C-0.67 0.67 -0.34 0.34 0 0 Z " fill="#1FA0A0" transform="translate(10,13)"/>
</svg>
